<svg xmlns="http://www.w3.org/2000/svg" width="63" height="56" viewBox="0 0 63 56" fill="none">
  <ellipse cx="34.5385" cy="31.6112" rx="18.3115" ry="18.9114" fill="#A24F30"/>
  <path d="M6.38195 49.7042L17.0096 36.203L23.5156 46.3018L6.38195 49.7042Z" fill="#5F2D1B"/>
  <path d="M53.1626 28.3551L62.2311 36.8814L52.1111 36.0129L53.1626 28.3551Z" fill="#D18568"/>
  <ellipse cx="49.3966" cy="27.604" rx="6.24966" ry="6.24912" fill="#1E1E1E"/>
  <ellipse cx="49.3967" cy="27.6042" rx="4.68724" ry="4.68684" fill="white"/>
  <path d="M35.3972 36.3242C35.6977 39.9486 30.5054 46.8247 26.4866 47.1413C22.4678 47.4579 17.0065 39.6111 16.706 35.9866C16.4054 32.3621 23.8925 31.0175 27.9113 30.7009C31.9301 30.3843 35.0966 32.6997 35.3972 36.3242Z" fill="#5F2D1B"/>
  <path d="M8.68799 18.5439L8.62549 25.8086" stroke="#1E1E1E" stroke-width="0.5"/>
  <rect x="7.56299" y="25.6991" width="2.12488" height="5.92104" fill="#FFB422"/>
  <path d="M16.0757 28.7536L46.8375 17.5754" stroke="#FFB422" stroke-width="5"/>
  <rect width="32.793" height="10.5399" transform="matrix(0.939072 -0.341275 0.372509 0.929042 12.2056 18.9942)" fill="#1E1E1E"/>
  <path d="M31.481 23.2079L50.4389 0.475045L1.51353 18.2554L31.481 23.2079Z" fill="#1E1E1E"/>
  <path d="M21.0321 17.0283L43.3005 9.37317L46.5519 17.0283L12.5942 19.7311L21.0321 17.0283Z" fill="#262525"/>
</svg>