<svg xmlns="http://www.w3.org/2000/svg" width="76" height="67" viewBox="0 0 76 67" fill="none">
  <ellipse cx="41.4409" cy="37.9302" rx="21.9721" ry="22.6918" fill="#A24F30"/>
  <path d="M7.65693 59.64L20.4091 43.4399L28.2157 55.5575L7.65693 59.64Z" fill="#5F2D1B"/>
  <path d="M63.7883 34.0232L74.6696 44.254L62.5265 43.2118L63.7883 34.0232Z" fill="#D18568"/>
  <ellipse cx="59.2705" cy="33.1222" rx="7.49902" ry="7.49833" fill="#1E1E1E"/>
  <ellipse cx="59.2707" cy="33.1225" rx="5.62427" ry="5.62375" fill="white"/>
  <path d="M42.4723 43.5854C42.8329 47.9344 36.6027 56.185 31.7805 56.5649C26.9583 56.9448 20.4052 47.5294 20.0446 43.1804C19.684 38.8314 28.6678 37.218 33.49 36.8381C38.3122 36.4582 42.1117 39.2364 42.4723 43.5854Z" fill="#5F2D1B"/>
  <path d="M10.4238 22.2509L10.3488 30.9677" stroke="#1E1E1E" stroke-width="0.5"/>
  <rect x="9.07422" y="30.8363" width="2.54967" height="7.10467" fill="#FFC045"/>
  <path d="M19.2891 34.5014L56.2004 21.0887" stroke="#FFC045" stroke-width="5"/>
  <rect width="39.3486" height="12.6468" transform="matrix(0.939073 -0.341273 0.372512 0.929041 14.6445 22.7915)" fill="#1E1E1E"/>
  <path d="M37.774 27.8475L60.5218 0.570256L1.81576 21.9049L37.774 27.8475Z" fill="#1E1E1E"/>
  <path d="M25.236 20.4322L51.9561 11.2467L55.8575 20.4322L15.1113 23.6752L25.236 20.4322Z" fill="#262525"/>
</svg>